<?xml version="1.0" encoding="UTF-8"?>
<svg id="Ebene_1" data-name="Ebene 1" xmlns="http://www.w3.org/2000/svg" viewBox="0 0 24 24">
  <circle class="svg-background" fill="white" cx="12" cy="12" r="12"/>
  <path fill="#454142" class="cls-1" d="m12,17.2655c-.6629,0-1.2564-.1797-1.7807-.539-.5243-.3593-.9424-.8227-1.2543-1.39l-1.4988.821-.412-.6851,1.574-.8745c-.0502-.1592-.0931-.3212-.1289-.4862-.0357-.165-.0645-.3311-.0864-.4983h-1.8679v-.7931h1.8616c.0134-.1897.0394-.3771.078-.5623.0385-.1852.0864-.3675.1436-.5469l-1.5804-.887.412-.679,1.4887.8368c.0877-.16.1866-.3116.2966-.455.11-.1434.2253-.2793.3458-.4077-.0177-.0726-.0305-.142-.0385-.2084-.008-.0664-.012-.1358-.012-.2084,0-.2833.0517-.5537.1551-.8113.1034-.2576.2476-.49.4326-.6972l-.9371-.8915.5739-.5681,1.0031.9445c.1858-.1138.3808-.1996.585-.2572.2042-.0576.4198-.0864.6468-.0864s.4442.0303.6517.091c.2074.0607.4026.1466.5856.2578l.9976-.9497.5739.5681-.9434.908c.1777.2072.3184.4375.4221.6909.1037.2535.1556.5205.1556.801,0,.0726-.0018.1401-.0055.2025-.0036.0624-.0129.1286-.0277.1985.1205.1284.2329.2642.3372.4073.1043.1431.2003.296.288.4587l1.4925-.8146.412.679-1.5732.8647c.0589.1713.107.3445.1444.5196.0374.1751.065.3556.0826.5414h1.8616v.7931h-1.8616c-.0177.1789-.0446.3566-.0809.5331-.0363.1766-.0832.3505-.1406.5218l1.5804.8805-.412.679-1.4988-.8368c-.3119.5673-.7311,1.0317-1.2575,1.393-.5264.3614-1.121.542-1.7838.542Zm-1.6195-7.758c.2394-.1495.4948-.2636.7662-.3423.2715-.0788.5559-.1182.8533-.1182.2932,0,.574.0388.8423.1165.2684.0777.5208.1871.7574.3282-.0504-.3701-.2307-.6899-.5409-.9592-.3101-.2694-.6631-.4041-1.0589-.4041-.3972,0-.7531.1356-1.0677.4067-.3146.2711-.4986.5952-.5518.9724Zm1.6195,6.9649c.8187,0,1.4883-.3419,2.0088-1.0256.5205-.6837.7807-1.4472.7807-2.2905,0-.7634-.2438-1.507-.7315-2.2307-.4877-.7237-1.1737-1.0855-2.058-1.0855-.8849,0-1.571.3609-2.0584,1.0828-.4874.7219-.7311,1.4663-.7311,2.2333,0,.8433.2602,1.6068.7807,2.2905.5205.6837,1.1901,1.0256,2.0088,1.0256Zm-.412-1.5802v-3.3201h.824v3.3201h-.824Z"/>
</svg>