<?xml version="1.0" encoding="UTF-8"?>
<svg id="Ebene_1" data-name="Ebene 1" xmlns="http://www.w3.org/2000/svg" viewBox="0 0 24 24">
  <circle class="svg-background" fill="white" cx="12" cy="12" r="12"/>
  <path fill="#454142" class="cls-1" d="m12,17.4804c-.2902,0-.5405-.1005-.7508-.3016-.2103-.2011-.3247-.4468-.3431-.737h2.1878c-.0184.2902-.1328.5359-.3431.737-.2103.2011-.4606.3016-.7508.3016Zm-2.1546-1.8342v-.8618h4.3092v.8618h-4.3092Zm.0884-1.6574c-.6018-.3742-1.0782-.8631-1.4292-1.4668-.351-.6037-.5265-1.2638-.5265-1.9806,0-1.1196.3904-2.0699,1.1712-2.8507.7808-.7808,1.7311-1.1712,2.8507-1.1712s2.0699.3904,2.8507,1.1712c.7808.7808,1.1712,1.7311,1.1712,2.8507,0,.7167-.1755,1.3769-.5265,1.9806-.351.6037-.8274,1.0926-1.4292,1.4668h-4.1324Zm.2563-.8618h3.6197c.4309-.3064.7637-.6847.9983-1.1348s.3519-.9337.3519-1.4508c0-.881-.3064-1.6279-.9193-2.2408s-1.3598-.9193-2.2408-.9193-1.6279.3064-2.2408.9193-.9193,1.3598-.9193,2.2408c0,.5171.1173,1.0007.3519,1.4508s.5674.8283.9983,1.1348Z"/>
</svg>