<svg width="32" height="32" viewBox="0 0 32 32" fill="none" xmlns="http://www.w3.org/2000/svg">
<rect width="32" height="32" rx="16" fill="white"/>
<path d="M21.3332 18.6667C22.8075 18.6667 23.9998 17.4743 23.9998 16C23.9998 14.5258 22.8075 13.3334 21.3332 13.3334C19.8589 13.3334 18.6665 14.5258 18.6665 16C18.6665 17.4743 19.8589 18.6667 21.3332 18.6667Z" stroke="#28231F"/>
<path d="M12.1667 13.3333C13.641 13.3333 14.8333 12.141 14.8333 10.6667C14.8333 9.19238 13.641 8 12.1667 8C10.6924 8 9.5 9.19238 9.5 10.6667C9.5 12.141 10.6924 13.3333 12.1667 13.3333Z" stroke="#28231F"/>
<path d="M12.1667 24C13.641 24 14.8333 22.8076 14.8333 21.3333C14.8333 19.859 13.641 18.6666 12.1667 18.6666C10.6924 18.6666 9.5 19.859 9.5 21.3333C9.5 22.8076 10.6924 24 12.1667 24Z" stroke="#28231F"/>
<path d="M14.5 12L18.7544 14.5943" stroke="#28231F"/>
<path d="M14.5 20L18.8419 17.36" stroke="#28231F"/>
</svg>
