<svg width="25px" height="25px" viewBox="0 0 1.5 1.5" version="1" xmlns="http://www.w3.org/2000/svg" enable-background="new 0 0 48 48"><path fill="#1976D2" d="M1.19 0.975 0.606 0.75l0.585 -0.225a0.095 0.095 0 0 0 0.053 -0.122A0.095 0.095 0 0 0 1.121 0.35l-0.813 0.313C0.275 0.675 0.25 0.713 0.25 0.75s0.025 0.075 0.059 0.087l0.813 0.313c0.013 0.003 0.022 0.006 0.035 0.006a0.094 0.094 0 0 0 0.087 -0.059 0.095 0.095 0 0 0 -0.053 -0.122z"/><g fill="#1E88E5"><path cx="11" cy="24" r="7" d="M0.563 0.75a0.219 0.219 0 0 1 -0.218 0.219A0.219 0.219 0 0 1 0.125 0.75a0.219 0.219 0 0 1 0.438 0z"/><path cx="37" cy="14" r="7" d="M1.375 0.438a0.219 0.219 0 0 1 -0.218 0.219 0.219 0.219 0 0 1 -0.219 -0.219 0.219 0.219 0 0 1 0.438 0z"/><path cx="37" cy="34" r="7" d="M1.375 1.063a0.219 0.219 0 0 1 -0.218 0.219 0.219 0.219 0 0 1 -0.219 -0.219 0.219 0.219 0 0 1 0.438 0z"/></g></svg>