<svg width="583" height="48" viewBox="0 0 583 48" fill="none" xmlns="http://www.w3.org/2000/svg">
<rect width="583" height="48" rx="24" fill="#28231F" fill-opacity="0.64"/>
<g clip-path="url(#clip0_283_50307)">
<line opacity="0.5" x1="80.5" y1="20" x2="80.5" y2="28" stroke="white"/>
<line opacity="0.5" x1="48.5" y1="20" x2="48.5" y2="28" stroke="white"/>
<line opacity="0.5" x1="112.5" y1="20" x2="112.5" y2="28" stroke="white"/>
<line opacity="0.5" x1="32.5" y1="20" x2="32.5" y2="28" stroke="white"/>
<line opacity="0.5" x1="96.5" y1="20" x2="96.5" y2="28" stroke="white"/>
<line opacity="0.5" x1="64.5" y1="20" x2="64.5" y2="28" stroke="white"/>
<line opacity="0.5" x1="128.5" y1="20" x2="128.5" y2="28" stroke="white"/>
<line x1="24.5" y1="16" x2="24.5" y2="41.4657" stroke="white"/>
<line opacity="0.5" x1="88.5" y1="20" x2="88.5" y2="28" stroke="white"/>
<line opacity="0.5" x1="56.5" y1="20" x2="56.5" y2="28" stroke="white"/>
<line x1="120.5" y1="16" x2="120.5" y2="41.4657" stroke="white"/>
<line opacity="0.5" x1="40.5" y1="20" x2="40.5" y2="28" stroke="white"/>
<line opacity="0.5" x1="104.5" y1="20" x2="104.5" y2="28" stroke="white"/>
<line x1="72.5" y1="16" x2="72.5" y2="41.4657" stroke="white"/>
<line opacity="0.5" x1="144.5" y1="20" x2="144.5" y2="28" stroke="white"/>
<line opacity="0.5" x1="136.5" y1="20" x2="136.5" y2="28" stroke="white"/>
<line opacity="0.5" x1="208.5" y1="20" x2="208.5" y2="28" stroke="white"/>
<line opacity="0.5" x1="176.5" y1="20" x2="176.5" y2="28" stroke="white"/>
<path opacity="0.5" d="M240 20L240 28" stroke="white"/>
<line opacity="0.5" x1="160.5" y1="20" x2="160.5" y2="28" stroke="white"/>
<line opacity="0.5" x1="224.5" y1="20" x2="224.5" y2="28" stroke="white"/>
<line opacity="0.5" x1="192.5" y1="20" x2="192.5" y2="28" stroke="white"/>
<line opacity="0.5" x1="152.5" y1="20" x2="152.5" y2="28" stroke="white"/>
<line x1="216.5" y1="16" x2="216.5" y2="41.4657" stroke="white"/>
<line opacity="0.5" x1="184.5" y1="20" x2="184.5" y2="28" stroke="white"/>
<line x1="168.5" y1="16" x2="168.5" y2="41.4657" stroke="white"/>
<line opacity="0.5" x1="232.5" y1="20" x2="232.5" y2="28" stroke="white"/>
<line opacity="0.5" x1="200.5" y1="20" x2="200.5" y2="28" stroke="white"/>
<line opacity="0.5" x1="256.5" y1="20" x2="256.5" y2="28" stroke="white"/>
<line opacity="0.5" x1="280.5" y1="20" x2="280.5" y2="28" stroke="white"/>
<line x1="264.5" y1="16" x2="264.5" y2="41.4657" stroke="white"/>
<path opacity="0.5" d="M320 20L320 28" stroke="white"/>
<path opacity="0.5" d="M368 20L368 28" stroke="white"/>
<path opacity="0.5" d="M416 20L416 27.5" stroke="white"/>
<path opacity="0.5" d="M464 20L464 28" stroke="white"/>
<path opacity="0.5" d="M512 20V28" stroke="white"/>
<line opacity="0.5" x1="296.5" y1="20" x2="296.5" y2="28" stroke="white"/>
<line opacity="0.5" x1="288.5" y1="20" x2="288.5" y2="28" stroke="white"/>
<line opacity="0.5" x1="272.5" y1="20" x2="272.5" y2="28" stroke="white"/>
<line opacity="0.5" x1="248.5" y1="20" x2="248.5" y2="28" stroke="white"/>
<line x1="312.5" y1="16" x2="312.5" y2="41.4657" stroke="white"/>
<line opacity="0.5" x1="304.5" y1="20" x2="304.5" y2="28" stroke="white"/>
<line opacity="0.5" x1="344.5" y1="20" x2="344.5" y2="28" stroke="white"/>
<line opacity="0.5" x1="392.5" y1="20" x2="392.5" y2="28" stroke="white"/>
<line opacity="0.5" x1="440.5" y1="20" x2="440.5" y2="28" stroke="white"/>
<line opacity="0.5" x1="472.5" y1="20" x2="472.5" y2="28" stroke="white"/>
<path opacity="0.5" d="M488 20V28" stroke="white"/>
<line opacity="0.5" x1="536.5" y1="20" x2="536.5" y2="28" stroke="white"/>
<line opacity="0.5" x1="328.5" y1="20" x2="328.5" y2="28" stroke="white"/>
<line opacity="0.5" x1="376.5" y1="20" x2="376.5" y2="28" stroke="white"/>
<line opacity="0.5" x1="424.5" y1="20" x2="424.5" y2="28" stroke="white"/>
<line opacity="0.5" x1="520.5" y1="20" x2="520.5" y2="28" stroke="white"/>
<line x1="360.5" y1="16" x2="360.5" y2="41.4657" stroke="white"/>
<line x1="408.5" y1="16" x2="408.5" y2="41.4657" stroke="white"/>
<path d="M456 16V37.9657" stroke="white"/>
<line x1="504.5" y1="16" x2="504.5" y2="41.4657" stroke="white"/>
<line x1="552.5" y1="16" x2="552.5" y2="41.4657" stroke="white"/>
<line opacity="0.5" x1="352.5" y1="20" x2="352.5" y2="28" stroke="white"/>
<line opacity="0.5" x1="400.5" y1="20" x2="400.5" y2="28" stroke="white"/>
<line opacity="0.5" x1="448.5" y1="20" x2="448.5" y2="28" stroke="white"/>
<line opacity="0.5" x1="480.5" y1="20" x2="480.5" y2="28" stroke="white"/>
<path opacity="0.5" d="M496 20V28" stroke="white"/>
<line opacity="0.5" x1="544.5" y1="20" x2="544.5" y2="28" stroke="white"/>
<line opacity="0.5" x1="336.5" y1="20" x2="336.5" y2="28" stroke="white"/>
<line opacity="0.5" x1="384.5" y1="20" x2="384.5" y2="28" stroke="white"/>
<line opacity="0.5" x1="432.5" y1="20" x2="432.5" y2="28" stroke="white"/>
<line opacity="0.5" x1="528.5" y1="20" x2="528.5" y2="28" stroke="white"/>
</g>
<defs>
<clipPath id="clip0_283_50307">
<rect width="535" height="16" fill="white" transform="translate(24 16)"/>
</clipPath>
</defs>
</svg>
