<svg width="33" height="32" viewBox="0 0 33 32" fill="none" xmlns="http://www.w3.org/2000/svg">
<rect x="0.900391" width="32" height="32" rx="16" fill="white"/>
<path d="M16.9004 19.2727C18.7079 19.2727 20.1731 17.8075 20.1731 16C20.1731 14.1925 18.7079 12.7273 16.9004 12.7273C15.0929 12.7273 13.6277 14.1925 13.6277 16C13.6277 17.8075 15.0929 19.2727 16.9004 19.2727Z" stroke="#28231F" stroke-width="0.999995" stroke-miterlimit="10"/>
<path d="M8.90039 16H11.4458" stroke="#28231F" stroke-width="0.999995"/>
<path d="M22.3549 16H24.9003" stroke="#28231F" stroke-width="0.999995"/>
<path d="M16.9004 24V21.4545" stroke="#28231F" stroke-width="0.999995"/>
<path d="M16.9004 10.5455V8.00006" stroke="#28231F" stroke-width="0.999995"/>
<path d="M11.2422 21.6582L13.0422 19.8582" stroke="#28231F" stroke-width="0.999995"/>
<path d="M20.7584 12.1418L22.5584 10.3419" stroke="#28231F" stroke-width="0.999995"/>
<path d="M11.2422 10.3419L13.0422 12.1418" stroke="#28231F" stroke-width="0.999995"/>
<path d="M20.7584 19.8582L22.5584 21.6582" stroke="#28231F" stroke-width="0.999995"/>
</svg>
