<svg width="140" height="47" viewBox="0 0 140 47" fill="none" xmlns="http://www.w3.org/2000/svg">
<path d="M139.868 0H0.263401V46.432H139.868V0Z" fill="white"/>
<path d="M129.792 21.7118C129.792 21.7118 129.266 21.7118 129.2 21.7118C129.2 21.7772 129.2 22.8236 129.2 22.889C129.266 22.889 129.792 22.889 129.792 22.889C130.122 22.889 130.517 22.7582 130.517 22.3004C130.517 21.908 130.319 21.7118 129.792 21.7118Z" fill="#EE0000"/>
<path d="M129.793 20.0769C128.015 20.0769 126.698 21.3849 126.698 23.1506C126.698 24.9163 128.015 26.2243 129.793 26.2243C131.571 26.2243 132.888 24.9163 132.888 23.1506C132.888 21.3849 131.571 20.0769 129.793 20.0769ZM131.505 25.1779H130.649L129.595 23.543C129.595 23.543 129.332 23.543 129.266 23.543C129.266 23.6084 129.266 25.1779 129.266 25.1779H128.41V21.0579H129.859C130.781 21.0579 131.308 21.5157 131.308 22.3004C131.308 22.8236 130.978 23.2814 130.386 23.4122C130.452 23.4776 131.571 25.1779 131.505 25.1779Z" fill="#EE0000"/>
<path d="M0 0V46.3666H140V0H0ZM35.4939 15.1068H33.3208L26.8015 35.3799H21.4675L14.6848 15.1068H11.9849V10.9867H23.2455V15.1068H20.6115L24.365 27.4668H24.4309L28.5136 15.1068H26.0113V10.9867H35.428V15.1068H35.4939ZM52.8128 18.7036V15.1068H45.7667V20.7309H51.4299V24.8509H45.7667V31.2599H52.8128V27.5976H57.159V35.3799H37.206V31.2599H39.9059V15.1068H37.4694V10.9867H57.2248V18.7036H52.8128ZM79.285 35.3799H59.9247V31.2599H63.1515V15.1068H59.9247V10.9867H72.3706V15.1068H69.0781V31.2599H74.8072V27.5976H79.285V35.3799ZM102.004 15.1068H99.7648V28.7748C99.7648 34.4643 94.2333 35.7069 90.809 35.7069C86.0677 35.7069 81.7215 33.8758 81.7215 27.9246V15.1068H79.0216V10.9867H89.6237V15.1068H87.6482V27.5322C87.6482 29.9519 88.7676 31.5869 91.4017 31.5869C93.6406 31.5869 95.4186 30.5405 95.4186 27.7938V15.1068H93.3772V10.9867H102.004V15.1068ZM126.961 35.3799H115.503V31.5215H117.808L114.318 26.4205L110.894 31.5215H113.198V35.3799H103.452V31.2599H106.021L111.618 22.8236L106.087 15.1068H103.979V10.9867H114.647V14.8452H112.474L115.833 19.423L118.928 14.8452H116.886V10.9867H126.961V15.1068H123.801L118.401 23.0852L124.196 31.2599H126.961V35.3799ZM129.727 26.9437C127.554 26.9437 125.908 25.3087 125.908 23.1506C125.908 20.9925 127.554 19.3576 129.727 19.3576C131.9 19.3576 133.547 20.9925 133.547 23.1506C133.612 25.3087 131.966 26.9437 129.727 26.9437Z" fill="#EE0000"/>
</svg>
