<svg width="32" height="32" viewBox="0 0 32 32" fill="none" xmlns="http://www.w3.org/2000/svg">
<rect width="32" height="32" rx="16" fill="white"/>
<path d="M16 24C20.4183 24 24 20.4183 24 16C24 11.5817 20.4183 8 16 8C11.5817 8 8 11.5817 8 16C8 20.4183 11.5817 24 16 24Z" stroke="#28231F"/>
<path d="M15.5309 17.4827C15.4883 17.0062 15.4492 16.5227 15.4136 16.032C15.7763 15.9822 16.0927 15.8791 16.3629 15.7227C16.6403 15.5591 16.8572 15.3493 17.0136 15.0933C17.17 14.8373 17.2483 14.5351 17.2483 14.1867C17.2483 13.7244 17.1238 13.3689 16.8749 13.12C16.6332 12.864 16.2954 12.736 15.8616 12.736C15.3852 12.736 15.0332 12.8782 14.8056 13.1627C14.578 13.4471 14.4572 13.8276 14.4429 14.304H13.6536C13.6323 13.8916 13.7034 13.5111 13.8669 13.1627C14.0376 12.8071 14.2972 12.5262 14.6456 12.32C14.994 12.1067 15.41 12 15.8936 12C16.3487 12 16.7398 12.0889 17.0669 12.2667C17.4012 12.4444 17.6572 12.6969 17.8349 13.024C18.0127 13.344 18.1016 13.7138 18.1016 14.1333C18.1016 14.7307 17.9274 15.2284 17.5789 15.6267C17.2376 16.0178 16.786 16.2987 16.2243 16.4693C16.21 16.6684 16.1923 16.8924 16.1709 17.1413L16.1283 17.4827H15.5309ZM15.8296 19.968C15.6447 19.968 15.4918 19.9147 15.3709 19.808C15.25 19.6942 15.1896 19.5484 15.1896 19.3707C15.1896 19.1858 15.25 19.04 15.3709 18.9333C15.4918 18.8267 15.6447 18.7733 15.8296 18.7733C16.0216 18.7733 16.1745 18.8267 16.2883 18.9333C16.4092 19.04 16.4696 19.1858 16.4696 19.3707C16.4696 19.5484 16.4092 19.6942 16.2883 19.808C16.1745 19.9147 16.0216 19.968 15.8296 19.968Z" fill="black"/>
</svg>
