<?xml version="1.0" encoding="utf-8"?>
<!-- Generator: Adobe Illustrator 24.1.2, SVG Export Plug-In . SVG Version: 6.00 Build 0)  -->
<svg version="1.1" xmlns="http://www.w3.org/2000/svg" xmlns:xlink="http://www.w3.org/1999/xlink" x="0px" y="0px"
	 viewBox="0 0 64 64" style="enable-background:new 0 0 64 64;" xml:space="preserve">
<style type="text/css">
	.st0{display:none;}
	.st1{display:inline;}
</style>
<g id="Layer_1" class="st0">
	<g class="st1">
		<path d="M5.1,44.5c0-0.1,0-0.2,0.1-0.3c0.2-0.4,0.5-0.6,0.8-0.9c0.3-0.4,0.7-0.7,1.1-1.1c0.7-0.7,1.4-1.4,2.1-2.1
			c0.7-0.7,1.4-1.4,2.1-2.1c0.7-0.7,1.4-1.4,2.1-2.1c0.7-0.7,1.4-1.4,2.1-2.1c0.7-0.7,1.4-1.4,2.1-2.1c0.7-0.7,1.4-1.4,2.1-2.1
			c0.7-0.7,1.4-1.4,2.1-2.1s1.4-1.4,2.1-2.1c0.7-0.7,1.4-1.4,2.1-2.1c0.7-0.7,1.4-1.4,2.1-2.1c0.7-0.7,1.4-1.4,2.1-2.1
			c0.2-0.2,0.4-0.4,0.5-0.5c0.7-0.7,1.5-0.7,2.2,0c8.5,8.4,16.9,16.9,25.4,25.3c0.7,0.7,0.6,1.7-0.2,2.2c-0.6,0.4-1.3,0.3-1.8-0.2
			c-1.4-1.4-2.7-2.7-4.1-4.1C45.7,34.9,39,28.2,32.2,21.5c-0.3-0.3-0.2-0.3-0.5,0c-8.1,8.1-16.2,16.1-24.2,24.2
			c-0.5,0.5-1.4,0.6-2,0.2C5.1,45.5,5,45,5.1,44.5z"/>
	</g>
</g>
<g id="Layer_3" class="st0">
	<g class="st1">
		<path d="M59,9.9c0,11.3,0,22.6,0,33.8c0,0.2-0.1,0.4-0.1,0.6c-0.4,2.4-2.6,4.3-5,4.3c-1.7,0-3.3,0-5,0c-0.2,0-0.2,0-0.2,0.2
			c0,1.7,0,3.3,0,5c0,0.1,0,0.3,0,0.4c-0.3,2-1.3,3.5-3.2,4.3c-0.5,0.2-1.1,0.3-1.7,0.4c-11.3,0-22.6,0-33.8,0
			c-0.3,0-0.5-0.1-0.8-0.1C6.7,58.3,5,56.2,5,53.7c0-11,0-21.9,0-32.9c0-0.4,0-0.8,0.1-1.1c0.4-2.4,2.6-4.3,5-4.3c1.6,0,3.3,0,4.9,0
			c0.2,0,0.2-0.1,0.2-0.2c0-1.6,0-3.3,0-4.9c0-0.3,0-0.5,0.1-0.8C15.9,6.8,18,5,20.6,5c11,0,22,0,33.1,0c0.3,0,0.5,0,0.8,0.1
			c2.1,0.4,3.5,1.5,4.2,3.5C58.8,9,58.9,9.5,59,9.9z M7.7,37.1c0,5.5,0,11.1,0,16.6c0,1.4,1.2,2.6,2.5,2.6c11.1,0,22.1,0,33.2,0
			c1.3,0,2.5-1,2.5-2.6c0-11.1,0-22.1,0-33.2c0-1.5-1.1-2.6-2.6-2.6c-11.1,0-22.1,0-33.2,0c-1.5,0-2.6,1.3-2.6,2.6
			C7.7,26.1,7.7,31.6,7.7,37.1z M56.3,26.9c0-5.6,0-11.1,0-16.7c0-1.4-1.1-2.5-2.5-2.5c-11.1,0-22.2,0-33.3,0c-0.2,0-0.3,0-0.4,0
			C18.8,8,18,9,18,10.3c0,1.6,0,3.1,0,4.7c0,0.2,0.1,0.3,0.3,0.3c8.4,0,16.9,0,25.3,0c0.2,0,0.5,0,0.7,0c2.5,0.3,4.4,2.5,4.4,5
			c0,8.5,0,16.9,0,25.4c0,0.2,0.1,0.3,0.3,0.3c1.6,0,3.2,0,4.8,0c1.5,0,2.6-1.3,2.5-2.5C56.2,38,56.3,32.4,56.3,26.9z"/>
	</g>
</g>
<g id="Layer_4" class="st0">
	<g class="st1">
		<path d="M31,59c-0.2,0-0.3-0.1-0.5-0.1c-1.9-0.5-2.7-2.1-2.5-3.8c0.2-1.7,1.6-2.8,3.3-2.9c0.9,0,1.8,0.1,2.6,0.7
			c0.8,0.6,1.2,1.4,1.3,2.5c0,0.5,0,1.1-0.2,1.6c-0.5,1.1-1.4,1.7-2.6,2c-0.1,0-0.2,0-0.2,0.1C31.8,59,31.4,59,31,59z"/>
		<path d="M29.4,32.9c1.1-0.2,2.1-0.4,3.1-0.7c2.1-0.6,4-1.4,5.7-2.8c2.1-1.7,3.5-3.9,4.1-6.6c0.2-1.1,0.3-2.1,0.3-3.2
			c0-2-0.4-3.9-1.3-5.7c-1.1-2.2-2.9-3.6-5.2-4.4c-1.2-0.4-2.4-0.6-3.6-0.6c-1.3,0-2.6,0.1-3.9,0.4c-2.9,0.8-4.9,2.5-6.1,5.2
			c-0.6,1.3-0.9,2.6-1.1,4c-0.1,0.6-0.1,1.2-0.2,1.9c0,0.2-0.1,0.2-0.2,0.2c-1.3,0-2.5,0-3.8,0c-0.1,0-0.2,0-0.2-0.2
			c-0.1-3.4,0.7-6.6,2.7-9.4c1.7-2.4,4.1-4.1,6.9-5c1.3-0.4,2.7-0.7,4.1-0.8c1.1-0.1,2.2-0.1,3.3,0c2.9,0.3,5.5,1,7.9,2.8
			c2.3,1.7,3.8,4.1,4.6,6.8c0.4,1.3,0.5,2.6,0.6,4c0.1,2.4-0.2,4.7-1.1,6.9c-1,2.6-2.7,4.7-4.9,6.3c-2.1,1.6-4.5,2.6-7,3.3
			c-0.4,0.1-0.4,0.1-0.4,0.5c-0.1,0.7-0.1,1.5-0.1,2.2c-0.1,0.7-0.1,1.4-0.2,2c-0.1,0.7-0.1,1.3-0.2,2c0,0.2-0.1,0.2-0.2,0.2
			c-0.9,0-1.8,0-2.6,0c-0.2,0-0.2-0.1-0.2-0.2c-0.1-1.2-0.2-2.5-0.3-3.7c-0.1-1-0.1-2-0.2-3.1C29.5,34.4,29.4,33.6,29.4,32.9z"/>
	</g>
</g>
<g id="Layer_5" class="st0">
	<g class="st1">
		<path d="M54.3,56.4c-14.9,0-29.8,0-44.7,0c-0.1,0-0.2-0.1-0.4-0.1c-1.3-0.2-2.3-0.9-3.1-1.9C5.4,53.4,5,52.3,5,51
			c0-10.1,0-20.2,0-30.4c0-0.4,0-0.9,0.1-1.3c0.4-1.6,1.4-2.8,2.9-3.6c0.8-0.4,1.6-0.5,2.4-0.5c3,0,5.9,0,8.9,0
			c0.2,0,0.3-0.1,0.4-0.2c0.8-1.5,1.5-3,2.3-4.6c0.4-0.7,0.7-1.4,1.1-2.1c0.3-0.5,0.6-0.8,1.2-0.8c5.1,0,10.3,0,15.4,0
			c0.3,0,0.6,0.1,0.8,0.3C40.7,8,40.8,8.2,41,8.5c1.1,2.2,2.2,4.4,3.3,6.6c0.1,0.2,0.2,0.2,0.3,0.2c0.4,0,0.7,0,1.1,0
			c2.8,0,5.5,0,8.3,0c0.5,0,1,0.1,1.4,0.3c1.9,0.7,3.1,2,3.4,4c0,0.1,0.1,0.3,0.1,0.4c0,10.5,0,21.1,0,31.6c0,0,0,0,0,0.1
			c0,0.2-0.1,0.4-0.1,0.6c-0.4,2-2.1,3.6-4.1,4C54.6,56.3,54.5,56.4,54.3,56.4z M32,18c-7.2,0-14.5,0-21.7,0c-0.4,0-0.8,0.1-1.2,0.3
			c-0.9,0.5-1.3,1.2-1.3,2.2c0,6.7,0,13.5,0,20.2c0,3.5,0,7,0,10.5c0,1,0.6,1.9,1.5,2.3c0.4,0.2,0.8,0.2,1.2,0.2
			c14.3,0,28.6,0,42.8,0c0.3,0,0.5,0,0.8,0c0.7-0.1,1.2-0.4,1.7-0.9c0.4-0.5,0.6-1.1,0.6-1.8c0-10.1,0-20.3,0-30.4
			c0-0.2,0-0.4,0-0.6C56,18.7,54.9,18,53.7,18C46.5,18,39.2,18,32,18z M32,15.3c0.5,0,0.9,0,1.4,0c2.6,0,5.1,0,7.7,0
			c0.2,0,0.2,0,0.1-0.2c0,0,0,0,0,0c-0.8-1.5-1.5-3-2.3-4.5c-0.1-0.2-0.2-0.2-0.3-0.2c-4.4,0-8.8,0-13.2,0c-0.2,0-0.3,0.1-0.3,0.2
			c-0.7,1.5-1.5,3-2.2,4.5c-0.1,0.3-0.1,0.3,0.2,0.3C26,15.3,29,15.3,32,15.3z"/>
		<path d="M43.6,35.8c0,6.3-5.1,11.6-11.6,11.6c-6.5,0-11.7-5.3-11.6-11.8c0.1-6.2,5.1-11.5,11.8-11.4
			C38.6,24.3,43.6,29.6,43.6,35.8z M32,27c-4.6-0.1-8.9,3.6-8.9,8.9c0,5,4,8.8,8.7,8.9c4.9,0.1,9-3.8,9.1-8.8
			C40.9,30.7,36.7,26.9,32,27z"/>
	</g>
</g>
<g id="Layer_6">
	<g>
		<path d="M5,32c0-0.2,0.1-0.4,0.1-0.6c0.2-1.3,0.7-2.5,1.6-3.5c0.6-0.7,1.4-1.3,2.2-1.6c0.8-0.3,1.7-0.5,2.6-0.5
			c0.7,0,1.2-0.3,1.6-0.8c0.6-0.9,0.6-2-0.2-2.8c-0.2-0.2-0.4-0.4-0.5-0.6c-0.8-1-1.2-2.1-1.3-3.4c-0.2-2,0.5-3.7,1.9-5.1
			c1-1,2.3-1.7,3.8-1.8c2-0.2,3.8,0.4,5.3,1.8c0.7,0.7,1.4,0.8,2.3,0.5c0.7-0.2,1.1-0.7,1.2-1.4c0.1-0.3,0.1-0.6,0.1-1
			c0-1.7,0.7-3.1,1.9-4.4c0.7-0.7,1.5-1.2,2.4-1.5C30.6,5.1,31.3,5,32,5c1.3,0,2.5,0.3,3.5,1c1.6,1,2.5,2.5,2.8,4.4
			c0.1,0.4,0.1,0.8,0.1,1.1c0,1.1,0.8,2,2,2c0.5,0,1-0.2,1.4-0.6c0.9-0.9,1.9-1.5,3.1-1.8c3.4-0.9,7,1.3,7.7,4.8
			c0.5,2.3-0.1,4.3-1.7,6c-0.6,0.7-0.8,1.4-0.5,2.3c0.2,0.7,0.7,1.1,1.3,1.3c0.3,0.1,0.6,0.1,0.9,0.1c1.4,0,2.7,0.4,3.8,1.3
			c1.3,1,2.2,2.4,2.4,4.1c0.3,2.3-0.3,4.2-2,5.8c-1,0.9-2.2,1.5-3.6,1.6c-0.4,0-0.8,0-1.2,0.1c-0.8,0.1-1.5,0.7-1.6,1.6
			c-0.1,0.7,0.1,1.3,0.6,1.8c1,1,1.6,2.2,1.8,3.6c0.3,2-0.2,3.7-1.5,5.2c-1,1.2-2.4,1.9-3.9,2.1c-2.1,0.3-3.9-0.4-5.4-1.9
			c-0.4-0.4-1-0.7-1.6-0.6c-1,0-1.8,0.9-1.8,1.9c0,1.2-0.2,2.4-0.8,3.5c-1,1.8-2.5,2.9-4.6,3.3c-0.1,0-0.2,0.1-0.3,0.1
			c-0.5,0-0.9,0-1.4,0c0,0-0.1,0-0.1,0c-0.3-0.1-0.7-0.1-1-0.2c-2.8-0.8-4.7-3.3-4.7-6.3c0-1.4-1.3-2-2.2-2c-0.5,0-1,0.3-1.3,0.6
			c-1.5,1.5-3.3,2.1-5.4,1.8c-1.5-0.2-2.8-0.9-3.8-2c-1.4-1.6-2-3.5-1.6-5.6c0.2-1.2,0.8-2.3,1.7-3.2c0.7-0.7,0.8-1.5,0.5-2.2
			c-0.3-0.8-1-1.2-2-1.2c-0.5,0-1-0.1-1.6-0.2c-2.6-0.5-4.7-2.8-5-5.4c0-0.2-0.1-0.4-0.1-0.6C5,32.3,5,32.1,5,32z M11.9,34.9
			c0.2,0,0.4,0,0.7,0.1c0.2,0,0.4,0.1,0.6,0.1c2.9,0.7,4.6,3.5,4.2,6.2c-0.2,1.3-0.7,2.4-1.7,3.3c-0.5,0.5-0.8,1.1-0.8,1.8
			c-0.1,1.4,1,2.9,2.7,2.9c0.8,0,1.5-0.3,2.1-0.9c1.3-1.3,2.8-1.8,4.6-1.6c1.5,0.2,2.9,0.9,3.9,2.1c0.7,0.9,1.2,1.9,1.3,3
			c0,0.4,0,0.7,0.1,1.1c0.2,1.8,2.2,2.9,3.9,2.1c1-0.5,1.5-1.4,1.6-2.5c0-0.4,0-0.8,0.1-1.2c0.2-1.4,0.9-2.6,2-3.5
			c1.3-1,2.7-1.4,4.4-1.2c1.2,0.2,2.3,0.7,3.2,1.6c0.7,0.7,1.6,1,2.6,0.8c1.4-0.2,2.4-1.8,2.1-3.2c-0.1-0.6-0.5-1.1-0.9-1.6
			c-1.2-1.3-1.8-2.8-1.6-4.6c0.1-1.2,0.6-2.3,1.5-3.2c1-1,2.2-1.6,3.6-1.7c0.3,0,0.7,0,1,0c1.6-0.2,2.4-1.6,2.4-2.7
			c0-1.5-1.3-2.7-2.7-2.7c-0.6,0-1.1-0.1-1.7-0.2c-1-0.2-1.8-0.6-2.5-1.4c-0.7-0.7-1.3-1.6-1.6-2.7c-0.2-0.8-0.3-1.7-0.2-2.5
			c0.2-1.2,0.7-2.3,1.6-3.2c0.7-0.7,1-1.5,0.8-2.5c-0.2-1.5-1.8-2.5-3.2-2.2c-0.6,0.1-1.1,0.5-1.6,0.9c-1.3,1.2-2.8,1.7-4.5,1.5
			C38.2,17,37,16.3,36,15.1c-0.7-0.9-1.1-1.9-1.2-3c0-0.4,0-0.8-0.1-1.2c-0.2-1.1-1.2-2.1-2.3-2.2c-1-0.1-1.8,0.2-2.5,1
			c-0.4,0.5-0.6,1-0.6,1.5c0,0.5,0,0.9-0.1,1.4c-0.2,1.3-0.7,2.3-1.6,3.2c-0.7,0.7-1.5,1.1-2.5,1.4c-0.8,0.2-1.6,0.3-2.4,0.2
			c-1.3-0.2-2.3-0.7-3.2-1.7c-0.7-0.7-1.5-1-2.5-0.8c-1.2,0.2-2.2,1.4-2.2,2.6c0,0.8,0.3,1.5,0.9,2.1c1.3,1.3,1.9,2.9,1.6,4.8
			c-0.2,1.3-0.7,2.5-1.7,3.4c-1.1,1.1-2.4,1.6-4,1.6c-0.2,0-0.5,0-0.7,0.1c-1,0.3-1.7,0.9-2,2c-0.3,1,0,1.9,0.8,2.7
			C10.2,34.8,11,35,11.9,34.9z"/>
		<path d="M32,23.3c4.8,0,8.8,3.9,8.7,8.9c-0.1,4.7-3.9,8.5-8.7,8.5c-4.8,0-8.8-4-8.7-8.9C23.4,27.1,27.4,23.3,32,23.3z M27,32
			c-0.1,2.7,2.2,5,5,5c2.7,0,4.9-2.2,5-4.9c0.1-2.8-2.3-5.2-5-5.2C29.4,27,26.9,29.3,27,32z"/>
	</g>
</g>
<g id="BORDER" class="st0">
	<rect class="st1" width="64" height="5"/>
	<rect y="59" class="st1" width="64" height="5"/>
	<rect x="29.5" y="29.5" transform="matrix(-1.836970e-16 1 -1 -1.836970e-16 93.5 -29.5)" class="st1" width="64" height="5"/>
	<rect x="-29.5" y="29.5" transform="matrix(-1.836970e-16 1 -1 -1.836970e-16 34.5 29.5)" class="st1" width="64" height="5"/>
</g>
</svg>
