<?xml version="1.0" encoding="utf-8"?>
<!-- Generator: Adobe Illustrator 24.1.2, SVG Export Plug-In . SVG Version: 6.00 Build 0)  -->
<svg version="1.1" xmlns="http://www.w3.org/2000/svg" xmlns:xlink="http://www.w3.org/1999/xlink" x="0px" y="0px"
	 viewBox="0 0 64 64" style="enable-background:new 0 0 64 64;" xml:space="preserve">
<style type="text/css">
	.st0{display:none;}
	.st1{display:inline;}
</style>
<g id="Layer_1">
	<g>
		<path d="M5.1,44.5c0-0.1,0-0.2,0.1-0.3c0.2-0.4,0.5-0.6,0.8-0.9c0.3-0.4,0.7-0.7,1.1-1.1c0.7-0.7,1.4-1.4,2.1-2.1s1.4-1.4,2.1-2.1
			c0.7-0.7,1.4-1.4,2.1-2.1c0.7-0.7,1.4-1.4,2.1-2.1s1.4-1.4,2.1-2.1c0.7-0.7,1.4-1.4,2.1-2.1c0.7-0.7,1.4-1.4,2.1-2.1
			s1.4-1.4,2.1-2.1s1.4-1.4,2.1-2.1c0.7-0.7,1.4-1.4,2.1-2.1c0.7-0.7,1.4-1.4,2.1-2.1c0.2-0.2,0.4-0.4,0.5-0.5
			c0.7-0.7,1.5-0.7,2.2,0c8.5,8.4,16.9,16.9,25.4,25.3c0.7,0.7,0.6,1.7-0.2,2.2c-0.6,0.4-1.3,0.3-1.8-0.2c-1.4-1.4-2.7-2.7-4.1-4.1
			C45.7,34.9,39,28.2,32.2,21.5c-0.3-0.3-0.2-0.3-0.5,0c-8.1,8.1-16.2,16.1-24.2,24.2c-0.5,0.5-1.4,0.6-2,0.2
			C5.1,45.5,5,45,5.1,44.5z"/>
	</g>
</g>
<g id="BORDER" class="st0">
	<rect class="st1" width="64" height="5"/>
	<rect y="59" class="st1" width="64" height="5"/>
	<rect x="29.5" y="29.5" transform="matrix(-1.836970e-16 1 -1 -1.836970e-16 93.5 -29.5)" class="st1" width="64" height="5"/>
	<rect x="-29.5" y="29.5" transform="matrix(-1.836970e-16 1 -1 -1.836970e-16 34.5 29.5)" class="st1" width="64" height="5"/>
</g>
</svg>
