<?xml version="1.0" encoding="utf-8"?>
<!-- Generator: Adobe Illustrator 24.1.2, SVG Export Plug-In . SVG Version: 6.00 Build 0)  -->
<svg version="1.1" xmlns="http://www.w3.org/2000/svg" xmlns:xlink="http://www.w3.org/1999/xlink" x="0px" y="0px"
	 viewBox="0 0 64 64" style="enable-background:new 0 0 64 64;" xml:space="preserve">
<style type="text/css">
	.st0{display:none;}
	.st1{display:inline;}
</style>
<g id="Layer_1">
	<g>
		<path d="M58.9,19.5c0,0.1,0,0.2-0.1,0.3c-0.2,0.4-0.5,0.6-0.8,0.9c-0.3,0.4-0.7,0.7-1.1,1.1c-0.7,0.7-1.4,1.4-2.1,2.1
			c-0.7,0.7-1.4,1.4-2.1,2.1c-0.7,0.7-1.4,1.4-2.1,2.1c-0.7,0.7-1.4,1.4-2.1,2.1s-1.4,1.4-2.1,2.1c-0.7,0.7-1.4,1.4-2.1,2.1
			c-0.7,0.7-1.4,1.4-2.1,2.1c-0.7,0.7-1.4,1.4-2.1,2.1c-0.7,0.7-1.4,1.4-2.1,2.1c-0.7,0.7-1.4,1.4-2.1,2.1c-0.7,0.7-1.4,1.4-2.1,2.1
			c-0.2,0.2-0.4,0.4-0.5,0.5c-0.7,0.7-1.5,0.7-2.2,0C22.4,37.2,14,28.7,5.5,20.3c-0.7-0.7-0.6-1.7,0.2-2.2c0.6-0.4,1.3-0.3,1.8,0.2
			c1.4,1.4,2.7,2.7,4.1,4.1c6.7,6.7,13.5,13.4,20.2,20.2c0.3,0.3,0.2,0.3,0.5,0c8.1-8.1,16.2-16.1,24.2-24.2c0.5-0.5,1.4-0.6,2-0.2
			C58.9,18.5,59,19,58.9,19.5z"/>
	</g>
</g>
<g id="BORDER" class="st0">
	<rect class="st1" width="64" height="5"/>
	<rect y="59" class="st1" width="64" height="5"/>
	<rect x="29.5" y="29.5" transform="matrix(-1.836970e-16 1 -1 -1.836970e-16 93.5 -29.5)" class="st1" width="64" height="5"/>
	<rect x="-29.5" y="29.5" transform="matrix(-1.836970e-16 1 -1 -1.836970e-16 34.5 29.5)" class="st1" width="64" height="5"/>
</g>
</svg>
